<svg width="100" height="100" viewBox="0 0 100 100" fill="none" xmlns="http://www.w3.org/2000/svg">
<g id="VGraphic">
<rect width="1920" height="4310" transform="translate(-910 -3065)" fill="white"/>
<g id="Body" clip-path="url(#clip0_0_1)">
<g id="Download">
<g id="Frame 35">
<g id="Group 34">
<g id="Group 32">
<g id="bi:file-pdf-fill">
<g id="Group">
<path id="Vector" d="M34.5185 65.15C35.3935 64.6375 36.3497 64.1375 37.3872 63.6625C36.5108 64.9693 35.5722 66.2332 34.5747 67.45C32.8247 69.5563 31.4622 70.675 30.606 71.0251C30.5349 71.0551 30.4618 71.0802 30.3872 71.1001C30.3249 71.0135 30.2705 70.9214 30.2247 70.825C29.8747 70.1375 29.8872 69.475 30.4747 68.5751C31.1372 67.5438 32.4685 66.3625 34.5185 65.15ZM49.8622 54.8563C49.1185 55.0126 48.381 55.1688 47.6372 55.3438C48.7392 53.1855 49.7813 50.9972 50.7622 48.7813C51.7497 50.6124 52.8131 52.4014 53.9497 54.1438C52.5935 54.3438 51.2247 54.5813 49.8622 54.8563ZM65.6435 60.725C64.6728 59.9419 63.7639 59.0852 62.9247 58.1625C64.3497 58.1938 65.6372 58.3 66.7497 58.5C68.731 58.8563 69.6622 59.4188 69.9872 59.8063C70.0897 59.9145 70.1477 60.0573 70.1497 60.2063C70.1278 60.6472 69.9991 61.0762 69.7747 61.4563C69.6487 61.7608 69.4464 62.0277 69.1872 62.2313C69.0582 62.3104 68.9062 62.3435 68.756 62.3251C68.1935 62.3063 67.1435 61.9125 65.6435 60.725ZM51.7372 31.0625C51.4872 32.5875 51.0622 34.3375 50.4872 36.2438C50.2754 35.53 50.0898 34.8087 49.931 34.0813C49.456 31.875 49.3872 30.1438 49.6435 28.9438C49.881 27.8375 50.331 27.3938 50.8685 27.175C51.1568 27.048 51.4621 26.9638 51.7747 26.925C51.856 27.1125 51.9497 27.5 51.9747 28.1625C52.006 28.925 51.931 29.8938 51.7372 31.0688V31.0625Z" fill="#262123"/>
<path id="Vector_2" fill-rule="evenodd" clip-rule="evenodd" d="M25 0H75C78.3152 0 81.4946 1.31696 83.8388 3.66117C86.183 6.00537 87.5 9.18479 87.5 12.5V87.5C87.5 90.8152 86.183 93.9946 83.8388 96.3388C81.4946 98.683 78.3152 100 75 100H25C21.6848 100 18.5054 98.683 16.1612 96.3388C13.817 93.9946 12.5 90.8152 12.5 87.5V12.5C12.5 9.18479 13.817 6.00537 16.1612 3.66117C18.5054 1.31696 21.6848 0 25 0ZM26.0312 72.925C26.5938 74.05 27.4688 75.0687 28.7688 75.5437C30.0625 76.0125 31.3438 75.7938 32.3938 75.3563C34.3813 74.5438 36.3625 72.6312 38.1813 70.4437C40.2625 67.9375 42.45 64.65 44.5625 61.0062C48.6407 59.7972 52.8172 58.9481 57.0438 58.4687C58.9188 60.8625 60.8562 62.925 62.7312 64.4062C64.4812 65.7812 66.5 66.925 68.5687 67.0125C69.6956 67.0683 70.8113 66.7664 71.7562 66.15C72.725 65.5187 73.4437 64.6063 73.9688 63.55C74.5312 62.4188 74.875 61.2375 74.8312 60.0312C74.7917 58.842 74.3511 57.701 73.5812 56.7938C72.1687 55.1063 69.8562 54.2937 67.5812 53.8875C64.8215 53.4601 62.0215 53.3552 59.2375 53.575C56.8866 50.2516 54.8368 46.7251 53.1125 43.0375C54.675 38.9125 55.8437 35.0125 56.3625 31.825C56.5875 30.4625 56.7062 29.1625 56.6625 27.9875C56.6547 26.8212 56.3834 25.6717 55.8688 24.625C55.5722 24.0474 55.1509 23.543 54.6352 23.1484C54.1196 22.7538 53.5226 22.4789 52.8875 22.3438C51.625 22.075 50.325 22.3438 49.1312 22.825C46.775 23.7625 45.5312 25.7625 45.0625 27.9688C44.6063 30.0938 44.8125 32.5687 45.35 35.0687C45.9 37.6063 46.8375 40.3688 48.0375 43.1625C46.1179 47.9362 43.901 52.5849 41.4 57.0813C38.179 58.0947 35.0742 59.4459 32.1375 61.1125C29.825 62.4875 27.7687 64.1125 26.5312 66.0312C25.2187 68.0687 24.8125 70.4938 26.0312 72.925Z" fill="#262123"/>
</g>
</g>
</g>
</g>
</g>
</g>
</g>
</g>
<defs>
<clipPath id="clip0_0_1">
<rect width="1920" height="3627" fill="white" transform="translate(-910 -2915)"/>
</clipPath>
</defs>
</svg>
