<svg width="100" height="100" viewBox="0 0 100 100" fill="none" xmlns="http://www.w3.org/2000/svg">
<g id="Vision C">
<rect width="1920" height="5748" transform="translate(-910 -4503)" fill="white"/>
<g id="Body" clip-path="url(#clip0_0_1)">
<g id="Download">
<g id="Frame 35">
<g id="Group 34">
<g id="Group 32">
<g id="bi:file-pdf-fill">
<g id="Group">
<path id="Vector" d="M34.519 65.1498C35.394 64.6373 36.3502 64.1373 37.3877 63.6623C36.5113 64.969 35.5727 66.233 34.5752 67.4498C32.8252 69.5561 31.4627 70.6748 30.6065 71.0248C30.5354 71.0549 30.4623 71.0799 30.3877 71.0998C30.3253 71.0132 30.271 70.9212 30.2252 70.8248C29.8752 70.1373 29.8877 69.4748 30.4752 68.5748C31.1377 67.5436 32.469 66.3623 34.519 65.1498ZM49.8627 54.8561C49.119 55.0123 48.3815 55.1686 47.6377 55.3436C48.7397 53.1853 49.7817 50.9969 50.7627 48.7811C51.7501 50.6121 52.8136 52.4012 53.9502 54.1436C52.594 54.3436 51.2252 54.5811 49.8627 54.8561ZM65.644 60.7248C64.6733 59.9417 63.7644 59.085 62.9252 58.1623C64.3502 58.1936 65.6377 58.2998 66.7502 58.4998C68.7315 58.8561 69.6627 59.4186 69.9877 59.8061C70.0902 59.9143 70.1482 60.0571 70.1502 60.2061C70.1283 60.6469 69.9996 61.0759 69.7752 61.4561C69.6492 61.7606 69.4469 62.0275 69.1877 62.2311C69.0587 62.3102 68.9067 62.3433 68.7565 62.3248C68.194 62.3061 67.144 61.9123 65.644 60.7248ZM51.7377 31.0623C51.4877 32.5873 51.0627 34.3373 50.4877 36.2436C50.2759 35.5298 50.0903 34.8085 49.9315 34.0811C49.4565 31.8748 49.3877 30.1436 49.644 28.9436C49.8815 27.8373 50.3315 27.3936 50.869 27.1748C51.1573 27.0477 51.4626 26.9635 51.7752 26.9248C51.8565 27.1123 51.9502 27.4998 51.9752 28.1623C52.0065 28.9248 51.9315 29.8936 51.7377 31.0686V31.0623Z" fill="#262123"/>
<path id="Vector_2" fill-rule="evenodd" clip-rule="evenodd" d="M25 0H75C78.3152 0 81.4946 1.31696 83.8388 3.66117C86.183 6.00537 87.5 9.18479 87.5 12.5V87.5C87.5 90.8152 86.183 93.9946 83.8388 96.3388C81.4946 98.683 78.3152 100 75 100H25C21.6848 100 18.5054 98.683 16.1612 96.3388C13.817 93.9946 12.5 90.8152 12.5 87.5V12.5C12.5 9.18479 13.817 6.00537 16.1612 3.66117C18.5054 1.31696 21.6848 0 25 0ZM26.0312 72.925C26.5938 74.05 27.4688 75.0687 28.7688 75.5437C30.0625 76.0125 31.3438 75.7938 32.3938 75.3563C34.3813 74.5438 36.3625 72.6312 38.1813 70.4437C40.2625 67.9375 42.45 64.65 44.5625 61.0062C48.6407 59.7972 52.8172 58.9481 57.0438 58.4687C58.9188 60.8625 60.8562 62.925 62.7312 64.4062C64.4812 65.7812 66.5 66.925 68.5687 67.0125C69.6956 67.0683 70.8113 66.7664 71.7562 66.15C72.725 65.5187 73.4437 64.6063 73.9688 63.55C74.5312 62.4188 74.875 61.2375 74.8312 60.0312C74.7917 58.842 74.3511 57.701 73.5812 56.7938C72.1687 55.1063 69.8562 54.2937 67.5812 53.8875C64.8215 53.4601 62.0215 53.3552 59.2375 53.575C56.8866 50.2516 54.8368 46.7251 53.1125 43.0375C54.675 38.9125 55.8437 35.0125 56.3625 31.825C56.5875 30.4625 56.7062 29.1625 56.6625 27.9875C56.6547 26.8212 56.3834 25.6717 55.8688 24.625C55.5722 24.0474 55.1509 23.543 54.6352 23.1484C54.1196 22.7538 53.5226 22.4789 52.8875 22.3438C51.625 22.075 50.325 22.3438 49.1312 22.825C46.775 23.7625 45.5312 25.7625 45.0625 27.9688C44.6063 30.0938 44.8125 32.5687 45.35 35.0687C45.9 37.6063 46.8375 40.3688 48.0375 43.1625C46.1179 47.9362 43.901 52.5849 41.4 57.0813C38.179 58.0947 35.0742 59.4459 32.1375 61.1125C29.825 62.4875 27.7687 64.1125 26.5312 66.0312C25.2187 68.0687 24.8125 70.4938 26.0312 72.925Z" fill="#262123"/>
</g>
</g>
</g>
</g>
</g>
</g>
</g>
</g>
<defs>
<clipPath id="clip0_0_1">
<rect width="1920" height="5065" fill="white" transform="translate(-910 -4353)"/>
</clipPath>
</defs>
</svg>
