<svg width="60" height="60" viewBox="0 0 60 60" fill="none" xmlns="http://www.w3.org/2000/svg">
<circle cx="30" cy="30" r="30" transform="rotate(-180 30 30)" fill="url(#paint0_linear_127_412)"/>
<path d="M31.4791 31.125C31.2854 30.9297 31.055 30.7747 30.8011 30.669C30.5473 30.5632 30.275 30.5087 29.9999 30.5087C29.7249 30.5087 29.4526 30.5632 29.1987 30.669C28.9449 30.7747 28.7144 30.9297 28.5208 31.125L22.2708 37.375C21.8674 37.7673 21.6364 38.3038 21.6286 38.8664C21.6208 39.429 21.8368 39.9716 22.2291 40.375C22.6214 40.7783 23.1579 41.0093 23.7205 41.0171C24.2831 41.025 24.8258 40.809 25.2291 40.4167L29.9999 35.5417L34.7708 40.4167C34.9644 40.6119 35.1949 40.7669 35.4487 40.8727C35.7026 40.9785 35.9749 41.0329 36.2499 41.0329C36.525 41.0329 36.7973 40.9785 37.0511 40.8727C37.305 40.7669 37.5354 40.6119 37.7291 40.4167C37.9244 40.223 38.0794 39.9926 38.1851 39.7387C38.2909 39.4848 38.3454 39.2125 38.3454 38.9375C38.3454 38.6625 38.2909 38.3902 38.1851 38.1363C38.0794 37.8824 37.9244 37.652 37.7291 37.4583L31.4791 31.125ZM25.2291 28.875L29.9999 24.0833L34.7708 28.875C34.9644 29.0703 35.1949 29.2253 35.4487 29.331C35.7026 29.4368 35.9749 29.4912 36.2499 29.4912C36.525 29.4912 36.7973 29.4368 37.0511 29.331C37.305 29.2253 37.5354 29.0703 37.7291 28.875C37.9244 28.6813 38.0794 28.4509 38.1851 28.197C38.2909 27.9432 38.3454 27.6709 38.3454 27.3958C38.3454 27.1208 38.2909 26.8485 38.1851 26.5946C38.0794 26.3408 37.9244 26.1103 37.7291 25.9167L31.4791 19.6667C31.2854 19.4714 31.055 19.3164 30.8011 19.2106C30.5473 19.1049 30.275 19.0504 29.9999 19.0504C29.7249 19.0504 29.4526 19.1049 29.1987 19.2106C28.9449 19.3164 28.7144 19.4714 28.5208 19.6667L22.2708 25.9167C21.8785 26.309 21.6581 26.841 21.6581 27.3958C21.6581 27.9506 21.8785 28.4827 22.2708 28.875C22.6631 29.2673 23.1951 29.4877 23.7499 29.4877C24.3047 29.4877 24.8368 29.2673 25.2291 28.875Z" fill="white"/>
<defs>
<linearGradient id="paint0_linear_127_412" x1="30" y1="0" x2="30" y2="60" gradientUnits="userSpaceOnUse">
<stop stop-color="#E63946"/>
<stop offset="1" stop-color="#D1345B"/>
</linearGradient>
</defs>
</svg>
