<svg width="250" height="150" viewBox="0 0 250 150" fill="none" xmlns="http://www.w3.org/2000/svg">
<path d="M42.366 64.4819C32.333 64.4819 24.199 72.6149 24.199 82.6489C24.199 92.6819 32.333 100.815 42.366 100.815" fill="white"/>
<path d="M12.2339 64.4819C22.2679 64.4819 30.4009 72.6149 30.4009 82.6489C30.4009 92.6819 22.2679 100.815 12.2339 100.815" fill="#4747D1"/>
<path d="M65.3089 100.773H51.6809V64.226H64.8959C75.2719 64.226 85.8029 68.562 85.8029 82.396C85.8029 95.25 75.3749 100.773 65.3089 100.773ZM64.6899 71.763H60.3019V93.1329H64.4839C70.7809 93.1329 76.6149 90.553 76.6149 82.397C76.6139 74.189 70.7809 71.763 64.6899 71.763Z" fill="white"/>
<path d="M91.6338 100.773V64.226H100.513V100.773H91.6338Z" fill="white"/>
<path d="M126.014 101.754C114.76 101.754 106.345 93.908 106.345 82.448C106.345 70.73 115.017 63.245 126.168 63.245C131.277 63.245 136.801 65.103 139.848 68.614L133.86 74.602C132.208 72.331 129.266 71.247 126.479 71.247C120.334 71.247 115.947 75.996 115.947 82.449C115.947 89.108 120.232 93.651 126.322 93.651C129.781 93.651 132.517 92.102 134.066 89.934L140.209 95.715C137.008 99.432 132.156 101.754 126.014 101.754Z" fill="white"/>
<path d="M161.527 101.754C150.119 101.754 141.652 93.908 141.652 82.345C141.652 70.627 150.119 63.245 161.527 63.245C172.986 63.245 181.453 70.627 181.453 82.345C181.453 93.908 172.986 101.754 161.527 101.754ZM161.527 71.195C155.332 71.195 151.099 75.944 151.099 82.345C151.099 88.951 155.384 93.701 161.527 93.701C167.67 93.701 172.006 88.951 172.006 82.345C172.006 75.944 167.721 71.195 161.527 71.195Z" fill="white"/>
<path d="M201.377 71.763V100.774H192.549V71.763H182.225V64.226H211.702V71.763H201.377Z" fill="white"/>
<path d="M225.588 59.504V54.314H223.734V53.257H228.697V54.314H226.849V59.504H225.588Z" fill="white"/>
<path d="M229.494 59.504V53.256H231.383L232.518 57.518L233.637 53.256H235.53V59.504H234.358V54.586L233.118 59.504H231.903L230.669 54.586V59.504H229.494Z" fill="white"/>
<path d="M229.631 64.515C234.124 64.515 237.766 60.8728 237.766 56.38C237.766 51.8872 234.124 48.245 229.631 48.245C225.138 48.245 221.496 51.8872 221.496 56.38C221.496 60.8728 225.138 64.515 229.631 64.515Z" stroke="white" stroke-width="1.5" stroke-miterlimit="10"/>
</svg>
