<svg width="40" height="40" viewBox="0 0 40 40" fill="none" xmlns="http://www.w3.org/2000/svg">
<g filter="url(#filter0_i_127_451)">
<circle cx="20" cy="20" r="20" fill="white"/>
</g>
<path d="M26.0628 5H13.9372C9.00919 5 5 9.00919 5 13.9372V26.0628C5 30.9908 9.00919 35 13.9372 35H26.0628C30.9908 35 35 30.9908 35 26.0628V13.9372C34.9999 9.00919 30.9908 5 26.0628 5ZM31.982 26.0628C31.982 29.3319 29.3319 31.982 26.0628 31.982H13.9372C10.6681 31.982 8.018 29.3319 8.018 26.0628V13.9372C8.018 10.6681 10.6681 8.018 13.9372 8.018H26.0628C29.3319 8.018 31.982 10.6681 31.982 13.9372V26.0628Z" fill="url(#paint0_linear_127_451)"/>
<path d="M20 12.241C15.7216 12.241 12.2409 15.7217 12.2409 20C12.2409 24.2783 15.7216 27.759 20 27.759C24.2783 27.759 27.759 24.2783 27.759 20C27.759 15.7216 24.2783 12.241 20 12.241ZM20 24.7411C17.3815 24.7411 15.2589 22.6185 15.2589 20C15.2589 17.3816 17.3816 15.259 20 15.259C22.6184 15.259 24.741 17.3816 24.741 20C24.741 22.6184 22.6184 24.7411 20 24.7411Z" fill="url(#paint1_linear_127_451)"/>
<path d="M27.7741 14.1585C28.8009 14.1585 29.6333 13.3261 29.6333 12.2993C29.6333 11.2725 28.8009 10.4401 27.7741 10.4401C26.7473 10.4401 25.9149 11.2725 25.9149 12.2993C25.9149 13.3261 26.7473 14.1585 27.7741 14.1585Z" fill="url(#paint2_linear_127_451)"/>
<defs>
<filter id="filter0_i_127_451" x="0" y="0" width="40" height="44" filterUnits="userSpaceOnUse" color-interpolation-filters="sRGB">
<feFlood flood-opacity="0" result="BackgroundImageFix"/>
<feBlend mode="normal" in="SourceGraphic" in2="BackgroundImageFix" result="shape"/>
<feColorMatrix in="SourceAlpha" type="matrix" values="0 0 0 0 0 0 0 0 0 0 0 0 0 0 0 0 0 0 127 0" result="hardAlpha"/>
<feOffset dy="4"/>
<feGaussianBlur stdDeviation="2"/>
<feComposite in2="hardAlpha" operator="arithmetic" k2="-1" k3="1"/>
<feColorMatrix type="matrix" values="0 0 0 0 0 0 0 0 0 0 0 0 0 0 0 0 0 0 0.25 0"/>
<feBlend mode="normal" in2="shape" result="effect1_innerShadow_127_451"/>
</filter>
<linearGradient id="paint0_linear_127_451" x1="20" y1="34.9127" x2="20" y2="5.23302" gradientUnits="userSpaceOnUse">
<stop stop-color="#E09B3D"/>
<stop offset="0.3" stop-color="#C74C4D"/>
<stop offset="0.6" stop-color="#C21975"/>
<stop offset="1" stop-color="#7024C4"/>
</linearGradient>
<linearGradient id="paint1_linear_127_451" x1="20" y1="34.9127" x2="20" y2="5.23305" gradientUnits="userSpaceOnUse">
<stop stop-color="#E09B3D"/>
<stop offset="0.3" stop-color="#C74C4D"/>
<stop offset="0.6" stop-color="#C21975"/>
<stop offset="1" stop-color="#7024C4"/>
</linearGradient>
<linearGradient id="paint2_linear_127_451" x1="27.7741" y1="34.9128" x2="27.7741" y2="5.23313" gradientUnits="userSpaceOnUse">
<stop stop-color="#E09B3D"/>
<stop offset="0.3" stop-color="#C74C4D"/>
<stop offset="0.6" stop-color="#C21975"/>
<stop offset="1" stop-color="#7024C4"/>
</linearGradient>
</defs>
</svg>
