<svg width="40" height="40" viewBox="0 0 40 40" fill="none" xmlns="http://www.w3.org/2000/svg">
<g id="mdi:instagram">
<path id="Vector" d="M13.0002 3.33337H27.0002C32.3335 3.33337 36.6668 7.66671 36.6668 13V27C36.6668 29.5638 35.6484 32.0226 33.8355 33.8354C32.0227 35.6483 29.5639 36.6667 27.0002 36.6667H13.0002C7.66683 36.6667 3.3335 32.3334 3.3335 27V13C3.3335 10.4363 4.35195 7.97753 6.1648 6.16468C7.97765 4.35182 10.4364 3.33337 13.0002 3.33337ZM12.6668 6.66671C11.0755 6.66671 9.54941 7.29885 8.42419 8.42407C7.29897 9.54928 6.66683 11.0754 6.66683 12.6667V27.3334C6.66683 30.65 9.35016 33.3334 12.6668 33.3334H27.3335C28.9248 33.3334 30.4509 32.7012 31.5761 31.576C32.7014 30.4508 33.3335 28.9247 33.3335 27.3334V12.6667C33.3335 9.35004 30.6502 6.66671 27.3335 6.66671H12.6668ZM28.7502 9.16671C29.3027 9.16671 29.8326 9.3862 30.2233 9.7769C30.614 10.1676 30.8335 10.6975 30.8335 11.25C30.8335 11.8026 30.614 12.3325 30.2233 12.7232C29.8326 13.1139 29.3027 13.3334 28.7502 13.3334C28.1976 13.3334 27.6677 13.1139 27.277 12.7232C26.8863 12.3325 26.6668 11.8026 26.6668 11.25C26.6668 10.6975 26.8863 10.1676 27.277 9.7769C27.6677 9.3862 28.1976 9.16671 28.7502 9.16671ZM20.0002 11.6667C22.2103 11.6667 24.3299 12.5447 25.8927 14.1075C27.4555 15.6703 28.3335 17.7899 28.3335 20C28.3335 22.2102 27.4555 24.3298 25.8927 25.8926C24.3299 27.4554 22.2103 28.3334 20.0002 28.3334C17.79 28.3334 15.6704 27.4554 14.1076 25.8926C12.5448 24.3298 11.6668 22.2102 11.6668 20C11.6668 17.7899 12.5448 15.6703 14.1076 14.1075C15.6704 12.5447 17.79 11.6667 20.0002 11.6667ZM20.0002 15C18.6741 15 17.4023 15.5268 16.4646 16.4645C15.5269 17.4022 15.0002 18.674 15.0002 20C15.0002 21.3261 15.5269 22.5979 16.4646 23.5356C17.4023 24.4733 18.6741 25 20.0002 25C21.3262 25 22.598 24.4733 23.5357 23.5356C24.4734 22.5979 25.0002 21.3261 25.0002 20C25.0002 18.674 24.4734 17.4022 23.5357 16.4645C22.598 15.5268 21.3262 15 20.0002 15Z" fill="#262123"/>
</g>
</svg>
