<svg width="40" height="40" viewBox="0 0 40 40" fill="none" xmlns="http://www.w3.org/2000/svg">
<g id="ri:linkedin-fill">
<path id="Vector" d="M11.5667 8.33329C11.5662 9.21735 11.2146 10.065 10.5892 10.6898C9.96374 11.3146 9.11572 11.6654 8.23166 11.665C7.34761 11.6645 6.49993 11.3129 5.87513 10.6875C5.25032 10.062 4.89955 9.21401 4.89999 8.32996C4.90044 7.4459 5.25205 6.59823 5.87748 5.97342C6.50292 5.34861 7.35094 4.99785 8.23499 4.99829C9.11905 4.99873 9.96672 5.35035 10.5915 5.97578C11.2163 6.60121 11.5671 7.44924 11.5667 8.33329ZM11.6667 14.1333H4.99999V35H11.6667V14.1333ZM22.2 14.1333H15.5667V35H22.1333V24.05C22.1333 17.95 30.0833 17.3833 30.0833 24.05V35H36.6667V21.7833C36.6667 11.5 24.9 11.8833 22.1333 16.9333L22.2 14.1333Z" fill="#262123"/>
</g>
</svg>
