<svg width="100" height="100" viewBox="0 0 100 100" fill="none" xmlns="http://www.w3.org/2000/svg">
<g id="Vision C">
<rect width="1920" height="5748" transform="translate(-1222 -4503)" fill="white"/>
<g id="Body" clip-path="url(#clip0_0_1)">
<g id="Download">
<g id="Frame 35">
<g id="Group 34">
<g id="Group 33">
<g id="ri:ram-2-fill">
<path id="Vector" d="M8.33317 20.8335H91.6665C92.7716 20.8335 93.8314 21.2725 94.6128 22.0539C95.3942 22.8353 95.8332 23.8951 95.8332 25.0002V62.5002C95.8332 63.6052 95.3942 64.665 94.6128 65.4464C93.8314 66.2278 92.7716 66.6668 91.6665 66.6668V75.0002C91.6665 76.1052 91.2275 77.165 90.4461 77.9464C89.6647 78.7278 88.6049 79.1668 87.4998 79.1668H56.6082L52.4415 75.0002H47.5582L43.3915 79.1668H12.4998C11.3948 79.1668 10.335 78.7278 9.55356 77.9464C8.77216 77.165 8.33317 76.1052 8.33317 75.0002V66.6668C7.2281 66.6668 6.16829 66.2278 5.38689 65.4464C4.60549 64.665 4.1665 63.6052 4.1665 62.5002V25.0002C4.1665 23.8951 4.60549 22.8353 5.38689 22.0539C6.16829 21.2725 7.2281 20.8335 8.33317 20.8335ZM16.6665 66.6668V70.8335H39.9415L44.1082 66.6668H16.6665ZM55.8915 66.6668L60.0582 70.8335H83.3332V66.6668H55.8915ZM29.1665 37.5002H20.8332V50.0002H29.1665V37.5002ZM37.4998 37.5002V50.0002H45.8332V37.5002H37.4998ZM62.4998 37.5002H54.1665V50.0002H62.4998V37.5002ZM70.8332 37.5002V50.0002H79.1665V37.5002H70.8332Z" fill="#262123"/>
</g>
</g>
</g>
</g>
</g>
</g>
</g>
<defs>
<clipPath id="clip0_0_1">
<rect width="1920" height="5065" fill="white" transform="translate(-1222 -4353)"/>
</clipPath>
</defs>
</svg>
