<svg width="100" height="100" viewBox="0 0 100 100" fill="none" xmlns="http://www.w3.org/2000/svg">
<g id="VGraphic">
<rect width="1920" height="4310" transform="translate(-1222 -3065)" fill="white"/>
<g id="Body" clip-path="url(#clip0_0_1)">
<g id="Download">
<g id="Frame 35">
<g id="Group 34">
<g id="Group 33">
<g id="ri:ram-2-fill">
<path id="Vector" d="M8.33366 20.8333H91.667C92.7721 20.8333 93.8319 21.2722 94.6133 22.0536C95.3947 22.835 95.8337 23.8948 95.8337 24.9999V62.4999C95.8337 63.605 95.3947 64.6648 94.6133 65.4462C93.8319 66.2276 92.7721 66.6666 91.667 66.6666V74.9999C91.667 76.105 91.228 77.1648 90.4466 77.9462C89.6652 78.7276 88.6054 79.1666 87.5003 79.1666H56.6087L52.442 74.9999H47.5587L43.392 79.1666H12.5003C11.3953 79.1666 10.3354 78.7276 9.55405 77.9462C8.77265 77.1648 8.33366 76.105 8.33366 74.9999V66.6666C7.22859 66.6666 6.16878 66.2276 5.38738 65.4462C4.60598 64.6648 4.16699 63.605 4.16699 62.4999V24.9999C4.16699 23.8948 4.60598 22.835 5.38738 22.0536C6.16878 21.2722 7.22859 20.8333 8.33366 20.8333ZM16.667 66.6666V70.8333H39.942L44.1087 66.6666H16.667ZM55.892 66.6666L60.0587 70.8333H83.3337V66.6666H55.892ZM29.167 37.4999H20.8337V49.9999H29.167V37.4999ZM37.5003 37.4999V49.9999H45.8337V37.4999H37.5003ZM62.5003 37.4999H54.167V49.9999H62.5003V37.4999ZM70.8337 37.4999V49.9999H79.167V37.4999H70.8337Z" fill="#262123"/>
</g>
</g>
</g>
</g>
</g>
</g>
</g>
<defs>
<clipPath id="clip0_0_1">
<rect width="1920" height="3627" fill="white" transform="translate(-1222 -2915)"/>
</clipPath>
</defs>
</svg>
