<svg width="40" height="40" viewBox="0 0 40 40" fill="none" xmlns="http://www.w3.org/2000/svg">
<g id="mingcute:threads-line" clip-path="url(#clip0_172_646)">
<g id="Group">
<path id="Vector" fill-rule="evenodd" clip-rule="evenodd" d="M9.08344 7.70504C11.6618 4.95671 15.4001 3.33337 20.0284 3.33337C27.6368 3.33337 32.6818 7.71837 34.2784 13.795C34.3907 14.2227 34.3285 14.6774 34.1055 15.0592C33.8825 15.441 33.5169 15.7186 33.0893 15.8309C32.6616 15.9431 32.2069 15.8809 31.8251 15.6579C31.4433 15.4349 31.1657 15.0694 31.0534 14.6417C29.8418 10.0367 26.1268 6.66671 20.0268 6.66671C16.2168 6.66671 13.3934 7.98171 11.5168 9.98337C9.62344 12.0034 8.56844 14.855 8.56844 18.125V21.875C8.56844 25.145 9.62344 27.9967 11.5168 30.015C13.3934 32.02 16.2168 33.3334 20.0268 33.3334C22.7851 33.3334 24.9734 32.6934 26.6534 31.6584C28.3451 30.6167 29.3534 29.235 29.6368 27.65C29.9618 25.8234 29.5618 24.57 28.8734 23.665C28.4953 23.1787 28.0364 22.761 27.5168 22.43C27.2918 23.6784 26.8901 24.8567 26.2834 25.78C24.0468 29.1784 19.7701 29.47 16.9501 28.345C15.4234 27.7367 14.1151 26.0717 13.7084 24.2867C13.4636 23.2634 13.5458 22.1892 13.9434 21.215C14.3851 20.155 15.2034 19.2517 16.3684 18.565C17.5218 17.8834 19.2351 17.57 20.9334 17.5234C21.9568 17.495 23.0668 17.5634 24.1834 17.745C23.9501 16.6617 23.5551 15.8534 23.1101 15.4384C22.3034 14.6884 20.9668 14.16 19.6268 14.1684C18.3318 14.1784 17.2334 14.6767 16.5768 15.7267C16.3425 16.1015 15.9689 16.368 15.5382 16.4674C15.1075 16.5668 14.6549 16.491 14.2801 16.2567C13.9053 16.0224 13.6388 15.6488 13.5395 15.2181C13.4401 14.7874 13.5158 14.3349 13.7501 13.96C15.1451 11.73 17.4434 10.8517 19.6051 10.835C21.7218 10.82 23.9018 11.6217 25.3818 12.9984C26.8784 14.3917 27.5218 16.6767 27.6884 18.755C29.1451 19.39 30.5218 20.3217 31.5301 21.65C32.8318 23.3667 33.3918 25.58 32.9184 28.235C32.4351 30.9417 30.7268 33.065 28.4018 34.4967C26.1218 35.9 23.3084 36.6667 20.0268 36.6667C15.4001 36.6667 11.6601 35.0434 9.08511 32.295C6.52511 29.565 5.23511 25.855 5.23511 21.875V18.125C5.23511 14.145 6.52511 10.435 9.08511 7.70504H9.08344ZM24.3334 21.1667C23.2465 20.9315 22.1352 20.8274 21.0234 20.8567C19.5384 20.8967 18.4968 21.1784 18.0618 21.435C17.4218 21.8134 17.1451 22.1984 17.0218 22.4967C16.8904 22.8313 16.8682 23.1988 16.9584 23.5467C17.1618 24.44 17.8334 25.11 18.1851 25.2484C20.0618 25.9984 22.4101 25.6017 23.4984 23.9484C23.8901 23.3517 24.2018 22.3484 24.3318 21.1667H24.3334Z" fill="#262123"/>
</g>
</g>
<defs>
<clipPath id="clip0_172_646">
<rect width="40" height="40" fill="white"/>
</clipPath>
</defs>
</svg>
