<svg width="40" height="40" viewBox="0 0 40 40" fill="none" xmlns="http://www.w3.org/2000/svg">
<g id="mingcute:threads-line" clip-path="url(#clip0_13_99)">
<g id="Group">
<path id="Vector" fill-rule="evenodd" clip-rule="evenodd" d="M9.08333 7.70492C11.6617 4.95659 15.4 3.33325 20.0283 3.33325C27.6367 3.33325 32.6817 7.71825 34.2783 13.7949C34.3906 14.2226 34.3284 14.6773 34.1054 15.0591C33.8824 15.4409 33.5168 15.7185 33.0892 15.8308C32.6615 15.943 32.2068 15.8808 31.825 15.6578C31.4432 15.4348 31.1656 15.0692 31.0533 14.6416C29.8417 10.0366 26.1267 6.66659 20.0267 6.66659C16.2167 6.66659 13.3933 7.98159 11.5167 9.98325C9.62333 12.0033 8.56833 14.8549 8.56833 18.1249V21.8749C8.56833 25.1449 9.62333 27.9966 11.5167 30.0149C13.3933 32.0199 16.2167 33.3333 20.0267 33.3333C22.785 33.3333 24.9733 32.6933 26.6533 31.6583C28.345 30.6166 29.3533 29.2349 29.6367 27.6499C29.9617 25.8233 29.5617 24.5699 28.8733 23.6649C28.4952 23.1786 28.0363 22.7608 27.5167 22.4299C27.2917 23.6783 26.89 24.8566 26.2833 25.7799C24.0467 29.1783 19.77 29.4699 16.95 28.3449C15.4233 27.7366 14.115 26.0716 13.7083 24.2866C13.4635 23.2633 13.5457 22.189 13.9433 21.2149C14.385 20.1549 15.2033 19.2516 16.3683 18.5649C17.5217 17.8833 19.235 17.5699 20.9333 17.5233C21.9567 17.4949 23.0667 17.5633 24.1833 17.7449C23.95 16.6616 23.555 15.8533 23.11 15.4383C22.3033 14.6883 20.9667 14.1599 19.6267 14.1683C18.3317 14.1783 17.2333 14.6766 16.5767 15.7266C16.3424 16.1014 15.9688 16.3678 15.5381 16.4672C15.1074 16.5666 14.6548 16.4909 14.28 16.2566C13.9052 16.0223 13.6387 15.6487 13.5393 15.218C13.44 14.7873 13.5157 14.3348 13.75 13.9599C15.145 11.7299 17.4433 10.8516 19.605 10.8349C21.7217 10.8199 23.9017 11.6216 25.3817 12.9983C26.8783 14.3916 27.5217 16.6766 27.6883 18.7549C29.145 19.3899 30.5217 20.3216 31.53 21.6499C32.8317 23.3666 33.3917 25.5799 32.9183 28.2349C32.435 30.9416 30.7267 33.0649 28.4017 34.4966C26.1217 35.8999 23.3083 36.6666 20.0267 36.6666C15.4 36.6666 11.66 35.0433 9.085 32.2949C6.525 29.5649 5.235 25.8549 5.235 21.8749V18.1249C5.235 14.1449 6.525 10.4349 9.085 7.70492H9.08333ZM24.3333 21.1666C23.2464 20.9313 22.1351 20.8273 21.0233 20.8566C19.5383 20.8966 18.4967 21.1783 18.0617 21.4349C17.4217 21.8133 17.145 22.1983 17.0217 22.4966C16.8903 22.8311 16.8681 23.1987 16.9583 23.5466C17.1617 24.4399 17.8333 25.1099 18.185 25.2483C20.0617 25.9983 22.41 25.6016 23.4983 23.9483C23.89 23.3516 24.2017 22.3483 24.3317 21.1666H24.3333Z" fill="#262123"/>
</g>
</g>
<defs>
<clipPath id="clip0_13_99">
<rect width="40" height="40" fill="white"/>
</clipPath>
</defs>
</svg>
