<svg width="158" height="245" viewBox="0 0 158 245" fill="none" xmlns="http://www.w3.org/2000/svg">
<path d="M158 229.5L132.656 215.679L133.359 244.538L158 229.5ZM89.2434 0.221154C50.0901 38.8852 25.2752 72.5932 12.1424 101.5C-0.998466 130.425 -2.52401 154.745 5.27568 174.373C13.071 193.99 29.9777 208.406 52.6327 217.957C75.2816 227.505 103.868 232.282 135.475 232.548L135.517 227.548C104.331 227.286 76.4403 222.567 54.575 213.349C32.7159 204.134 17.0707 190.516 9.92225 172.527C2.7782 154.549 3.91706 131.693 16.6946 103.568C29.4802 75.4257 53.8377 42.2115 92.7566 3.77885L89.2434 0.221154Z" fill="black"/>
</svg>
