<svg width="158" height="245" viewBox="0 0 158 245" fill="none" xmlns="http://www.w3.org/2000/svg">
<path d="M-0.000228882 229.5L25.3438 215.679L24.641 244.538L-0.000228882 229.5ZM68.7564 0.221154C107.91 38.8852 132.725 72.5932 145.857 101.5C158.998 130.425 160.524 154.745 152.724 174.373C144.929 193.99 128.022 208.406 105.367 217.957C82.7181 227.505 54.1322 232.282 22.5251 232.548L22.4831 227.548C53.6689 227.286 81.5595 222.567 103.425 213.349C125.284 204.134 140.929 190.516 148.078 172.527C155.222 154.549 154.083 131.693 141.305 103.568C128.52 75.4257 104.162 42.2115 65.2431 3.77885L68.7564 0.221154Z" fill="black"/>
</svg>
